HIERARCHY
ROOT Hips
{
	OFFSET 0.000000 0.000000 0.000000
	CHANNELS 6 Xposition Yposition Zposition Xrotation Yrotation Zrotation
	JOINT LeftUpLeg_virtual
	{
		OFFSET 0.000000 0.000000 0.000000
		CHANNELS 3 Xrotation Yrotation Zrotation
		JOINT LeftUpLeg
		{
			OFFSET 15.427100 -6.655098 0.678600
			CHANNELS 3 Xrotation Yrotation Zrotation
			JOINT LeftLeg
			{
				OFFSET 4.081073 -39.591068 13.024000
				CHANNELS 3 Xrotation Yrotation Zrotation
				JOINT LeftFoot
				{
					OFFSET -4.081074 -37.707932 -15.979700
					CHANNELS 3 Xrotation Yrotation Zrotation
					JOINT LeftToeBase
					{
						OFFSET 5.346399 -15.068900 20.645000
						CHANNELS 3 Xrotation Yrotation Zrotation
						JOINT LeftToe_End
						{
							OFFSET 2.754700 0.931300 11.300900
							CHANNELS 3 Xrotation Yrotation Zrotation
							End Site
							{
								OFFSET 0 0 0
							}
						}
					}
				}
			}
		}
	}
	JOINT RightUpLeg_virtual
	{
		OFFSET 0.000000 0.000000 0.000000
		CHANNELS 3 Xrotation Yrotation Zrotation
		JOINT RightUpLeg
		{
			OFFSET -15.569500 -6.655098 0.678600
			CHANNELS 3 Xrotation Yrotation Zrotation
			JOINT RightLeg
			{
				OFFSET -4.081825 -39.591045 13.023800
				CHANNELS 3 Xrotation Yrotation Zrotation
				JOINT RightFoot
				{
					OFFSET 4.081824 -37.707954 -15.979600
					CHANNELS 3 Xrotation Yrotation Zrotation
					JOINT RightToeBase
					{
						OFFSET -5.346400 -15.068900 20.645000
						CHANNELS 3 Xrotation Yrotation Zrotation
						JOINT RightToe_End
						{
							OFFSET -2.754700 0.931300 11.300900
							CHANNELS 3 Xrotation Yrotation Zrotation
							End Site
							{
								OFFSET 0 0 0
							}
						}
					}
				}
			}
		}
	}
	JOINT Spine_virtual
	{
		OFFSET 0.000000 0.000000 0.000000
		CHANNELS 3 Xrotation Yrotation Zrotation
		JOINT Spine
		{
			OFFSET -0.279200 12.230698 -2.892100
			CHANNELS 3 Xrotation Yrotation Zrotation
			JOINT Spine1
			{
				OFFSET -0.232667 10.192268 -1.242267
				CHANNELS 3 Xrotation Yrotation Zrotation
				JOINT Spine1_split
				{
					OFFSET -0.232667 10.192268 -1.242267
					CHANNELS 3 Xrotation Yrotation Zrotation
					JOINT Spine2
					{
						OFFSET -0.232667 10.192268 -1.242267
						CHANNELS 3 Xrotation Yrotation Zrotation
						JOINT Neck_virtual
						{
							OFFSET 0.000000 0.000000 0.000000
							CHANNELS 3 Xrotation Yrotation Zrotation
							JOINT Neck
							{
								OFFSET -0.418800 17.814194 8.416900
								CHANNELS 3 Xrotation Yrotation Zrotation
								JOINT Head
								{
									OFFSET 0.000000 7.031097 3.806800
									CHANNELS 3 Xrotation Yrotation Zrotation
									JOINT HeadTop_End
									{
										OFFSET 0.000000 24.646606 12.978600
										CHANNELS 3 Xrotation Yrotation Zrotation
										End Site
										{
											OFFSET 0 0 0
										}
									}
								}
							}
						}
						JOINT LeftShoulder_virtual
						{
							OFFSET 0.000000 0.000000 0.000000
							CHANNELS 3 Xrotation Yrotation Zrotation
							JOINT LeftShoulder
							{
								OFFSET 8.476499 7.247704 -3.868750
								CHANNELS 3 Xrotation Yrotation Zrotation
								JOINT LeftShoulder_split
								{
									OFFSET 8.476499 7.247704 -3.868750
									CHANNELS 3 Xrotation Yrotation Zrotation
									JOINT LeftArm
									{
										OFFSET 9.308998 -2.777710 0.208600
										CHANNELS 3 Xrotation Yrotation Zrotation
										JOINT LeftForeArm
										{
											OFFSET 29.972298 0.000000 0.000000
											CHANNELS 3 Xrotation Yrotation Zrotation
											JOINT LeftHand
											{
												OFFSET 26.026505 0.000000 0.000000
												CHANNELS 3 Xrotation Yrotation Zrotation
												End Site
												{
													OFFSET 0 0 0
												}
											}
										}
									}
								}
							}
						}
						JOINT RightShoulder_virtual
						{
							OFFSET 0.000000 0.000000 0.000000
							CHANNELS 3 Xrotation Yrotation Zrotation
							JOINT RightShoulder
							{
								OFFSET -7.570500 7.247704 -3.868750
								CHANNELS 3 Xrotation Yrotation Zrotation
								JOINT RightShoulder_split
								{
									OFFSET -7.570500 7.247704 -3.868750
									CHANNELS 3 Xrotation Yrotation Zrotation
									JOINT RightArm
									{
										OFFSET -9.308998 -2.777710 0.208500
										CHANNELS 3 Xrotation Yrotation Zrotation
										JOINT RightForeArm
										{
											OFFSET -29.972300 0.000000 0.000000
											CHANNELS 3 Xrotation Yrotation Zrotation
											JOINT RightHand
											{
												OFFSET -26.026505 0.000000 0.000000
												CHANNELS 3 Xrotation Yrotation Zrotation
												End Site
												{
													OFFSET 0 0 0
												}
											}
										}
									}
								}
							}
						}
					}
				}
			}
		}
	}
}
MOTION
Frames: 7
Frame Time: 0.03333333
0.297732 75.933769 -4.303562 0.000000 0.000000 0.000000 -16.036791 2.622667 0.541337 -17.960583 -2.459527 17.976867 52.850539 -0.326816 0.738948 -22.721270 0.060637 -13.690745 -1.291872 -0.535938 -0.077363 0.000000 0.000000 0.000000 -16.593586 1.152821 0.531332 -10.940037 -2.965438 -20.208228 52.495038 3.700949 2.567584 -28.703228 -6.966499 13.542296 1.339031 0.920012 0.526296 0.000000 0.000000 0.000000 -15.561094 0.381071 0.289908 19.003458 0.215152 2.665674 5.768446 0.027582 -0.240448 2.089326 5.316661 -0.358441 0.000000 0.000000 0.000000 6.026093 -0.173374 0.469583 -11.327293 -1.319629 2.536106 -17.279327 1.588903 -0.597689 0.000000 0.000000 0.000000 7.786924 -0.221373 0.739790 3.513750 -7.683118 -4.525306 -4.854114 -0.926296 -4.055894 -10.470292 -17.692166 -58.747284 70.274327 -61.693561 70.640501 0.000000 0.000000 0.000000 7.480357 -0.092276 -0.085787 9.986316 -5.706143 15.978160 3.662026 2.576237 -1.022379 -27.554814 11.972033 60.477910 88.822273 61.317545 -83.631876 0.000000 0.000000 0.000000 
0.208113 75.952393 -4.114178 0.000000 0.000000 0.000000 -16.102924 2.716373 0.435656 -17.985290 -2.821959 18.058795 52.807372 -0.347137 0.722736 -22.769559 0.055139 -13.691593 -1.202771 -0.512244 -0.073808 0.000000 0.000000 0.000000 -16.669775 1.585969 0.498820 -10.615183 -2.921455 -20.095661 52.613470 3.711103 2.558163 -28.932251 -6.921186 13.356093 1.621294 0.952415 0.497660 0.000000 0.000000 0.000000 -15.704299 0.819861 0.197178 18.924875 0.140181 2.629078 5.954918 0.045686 -0.166349 1.950734 5.479811 -0.126623 0.000000 0.000000 0.000000 6.100771 -0.201918 0.517616 -11.613296 -1.067960 2.104564 -17.454610 1.836897 -0.649677 0.000000 0.000000 0.000000 7.837552 -0.165743 0.817322 3.613853 -7.660417 -4.124791 -4.514374 -1.030284 -4.256922 -12.468556 -18.026585 -60.374494 67.878379 -61.279412 68.379585 0.000000 0.000000 0.000000 7.596565 -0.097064 -0.047988 9.812231 -5.967038 16.053813 3.774039 1.868449 0.637577 -27.103439 10.667642 60.823238 86.506422 62.410505 -81.689875 0.000000 0.000000 0.000000 
0.085334 76.014481 -3.945740 0.000000 0.000000 0.000000 -16.356935 2.893971 0.377856 -17.955871 -3.253038 17.955644 52.870855 -0.378502 0.760207 -22.931447 0.109303 -13.832187 -1.053577 -0.446386 -0.137754 0.000000 0.000000 0.000000 -16.875055 2.030439 0.457420 -10.058065 -3.086818 -20.023738 52.620751 3.828954 2.521422 -29.081030 -6.947407 13.383395 1.518538 0.950385 0.472554 0.000000 0.000000 0.000000 -16.057739 1.419727 0.100597 19.043112 -0.036540 2.440745 6.319184 0.131447 -0.034615 1.759422 4.824604 0.051094 0.000000 0.000000 0.000000 6.378113 -0.120955 0.515611 -11.483995 -0.787672 1.251127 -17.989921 2.003414 -0.656251 0.000000 0.000000 0.000000 7.983701 -0.049242 0.899993 3.452160 -8.376281 -3.782349 -4.349200 -1.850775 -3.480375 -12.763334 -17.218757 -60.457699 61.504255 -61.972437 62.321426 0.000000 0.000000 0.000000 7.928238 0.008234 0.069911 9.392986 -6.053493 16.195391 2.367555 1.393210 1.101027 -25.071497 11.411467 59.735072 82.592102 65.741623 -78.783978 0.000000 0.000000 0.000000 
-0.022791 76.132896 -3.839958 0.000000 0.000000 0.000000 -16.768157 3.113329 0.396606 -17.794473 -3.611703 17.616919 52.983280 -0.374758 0.867728 -23.120269 0.230005 -13.998521 -0.925902 -0.355396 -0.253571 0.000000 0.000000 0.000000 -17.163827 2.368921 0.445385 -9.311632 -3.450631 -20.034552 52.473622 3.981471 2.499471 -29.235573 -7.067102 13.434024 1.214259 0.913053 0.482881 0.000000 0.000000 0.000000 -16.558979 1.923688 0.066374 19.295561 -0.303568 2.152851 6.775999 0.244371 0.083934 1.341956 3.620920 0.664098 0.000000 0.000000 0.000000 6.801336 -0.013834 0.465402 -10.761423 -0.486728 0.147992 -18.614892 2.178419 -0.738507 0.000000 0.000000 0.000000 8.185967 0.055698 0.949378 3.095750 -9.634095 -3.318896 -4.315265 -3.282797 -2.318692 -11.124260 -15.751080 -58.405446 53.235833 -63.932859 54.381433 0.000000 0.000000 0.000000 8.362948 0.128083 0.206359 8.846823 -5.940989 16.089952 0.039617 1.080630 0.788388 -20.844527 13.676223 56.500930 79.220803 71.056924 -76.603795 0.000000 0.000000 0.000000 
-0.087830 76.362595 -3.743382 0.000000 0.000000 0.000000 -17.309518 3.281181 0.526838 -17.429535 -3.808303 17.060421 52.947295 -0.298150 1.014275 -23.226734 0.394198 -14.060591 -0.896697 -0.263263 -0.376007 0.000000 0.000000 0.000000 -17.515059 2.620224 0.521856 -8.478596 -3.975557 -20.119142 52.084857 4.032230 2.530285 -29.349972 -7.288618 13.278019 1.074221 0.859141 0.541306 0.000000 0.000000 0.000000 -17.189375 2.233627 0.131115 19.550208 -0.672666 1.821593 7.211302 0.299885 0.148461 0.555284 2.469296 1.193250 0.000000 0.000000 0.000000 7.343453 0.001522 0.370816 -9.119079 -0.133833 -0.975259 -19.062332 2.364210 -0.921109 0.000000 0.000000 0.000000 8.417686 0.054453 0.962756 2.654643 -11.113452 -2.549232 -4.470120 -4.125391 -1.767917 -7.951302 -14.285231 -53.986522 43.976484 -67.247980 45.509728 0.000000 0.000000 0.000000 8.830476 0.127262 0.319632 8.243473 -5.707903 15.494347 -1.708917 1.093043 0.064755 -14.218345 16.126454 50.850888 76.039157 77.637019 -74.293019 0.000000 0.000000 0.000000 
-0.102354 76.780586 -3.741905 0.000000 0.000000 0.000000 -17.842365 3.363684 0.768711 -16.844478 -3.863653 16.366950 52.627069 -0.173794 1.186728 -23.111352 0.533424 -14.005971 -0.979503 -0.192939 -0.471579 0.000000 0.000000 0.000000 -17.833692 2.793482 0.711475 -7.700773 -4.560041 -20.252134 51.407689 3.964155 2.633412 -29.321637 -7.557879 12.939586 1.186489 0.814904 0.637812 0.000000 0.000000 0.000000 -17.840691 2.310670 0.319406 19.668672 -1.120233 1.504442 7.539626 0.201871 0.150684 -0.341568 1.712481 1.113348 0.000000 0.000000 0.000000 7.957423 -0.121829 0.268374 -6.279437 0.209281 -1.877206 -19.121953 2.511549 -1.249823 0.000000 0.000000 0.000000 8.630862 -0.111486 0.950416 2.283449 -12.544107 -1.385786 -4.278991 -4.338218 -1.889137 -3.880414 -12.957792 -47.150995 33.274086 -71.690567 35.219607 0.000000 0.000000 0.000000 9.212179 -0.053452 0.399901 7.605182 -5.252801 14.183108 -2.794811 1.325211 -0.409115 -6.179728 16.874641 43.101666 63.333100 84.220057 -61.888679 0.000000 0.000000 0.000000 
-0.084535 77.361084 -3.831806 0.000000 0.000000 0.000000 -18.311614 3.352103 1.072583 -16.125723 -3.815382 15.707144 51.954858 -0.063981 1.358788 -22.665599 0.609897 -13.908743 -1.113092 -0.158456 -0.518330 0.000000 0.000000 0.000000 -18.073761 2.954916 1.007212 -7.028908 -5.097830 -20.459482 50.424210 3.860113 2.764714 -29.053347 -7.784572 12.671315 1.297890 0.804113 0.715781 0.000000 0.000000 0.000000 -18.456059 2.318525 0.601106 19.596281 -1.632187 1.200461 7.818502 -0.063961 0.090776 -0.814835 1.704026 0.830679 0.000000 0.000000 0.000000 8.548424 -0.415847 0.213573 -2.133705 0.479698 -2.414757 -18.751067 2.627161 -1.631776 0.000000 0.000000 0.000000 8.855583 -0.422958 0.894431 2.153043 -13.759447 0.244268 -3.782665 -4.735911 -2.349082 1.060978 -11.298074 -38.202033 19.499237 -76.079524 21.677436 0.000000 0.000000 0.000000 9.387446 -0.404054 0.483472 6.931961 -4.435763 12.306067 -3.355552 1.700842 -0.449627 0.643820 15.106015 34.739476 -21.372528 86.518839 22.914330 0.000000 0.000000 0.000000 
